<?xml version="1.0" standalone="no"?>
<!DOCTYPE svg PUBLIC "-//W3C//DTD SVG 20010904//EN"
 "http://www.w3.org/TR/2001/REC-SVG-20010904/DTD/svg10.dtd">
<svg version="1.0" xmlns="http://www.w3.org/2000/svg"
 width="500.000000pt" height="500.000000pt" viewBox="0 0 500.000000 500.000000"
 preserveAspectRatio="xMidYMid meet">

<g transform="translate(0.000000,500.000000) scale(0.100000,-0.100000)"
fill="#000000" stroke="none">
<path d="M2460 3183 c-8 -3 -102 -39 -207 -79 -271 -104 -265 -101 -218 -122
24 -11 25 -14 25 -117 0 -61 -4 -105 -10 -105 -26 0 -59 -122 -39 -146 15 -18
109 -19 133 -1 17 13 18 18 6 67 -7 29 -21 61 -31 71 -16 16 -19 34 -19 109 0
50 3 90 6 90 4 0 33 -10 65 -21 l59 -22 0 -54 c0 -46 4 -58 27 -79 42 -39 123
-58 248 -58 131 -1 205 16 251 56 31 27 34 35 34 83 l0 52 103 40 c63 24 102
45 102 53 0 10 -75 44 -215 99 -201 78 -282 100 -320 84z m-47 -347 c37 -14
80 -26 96 -26 24 0 100 26 224 75 16 7 18 3 15 -36 -3 -42 -6 -45 -52 -68 -87
-43 -295 -41 -391 5 -35 16 -48 45 -39 81 7 24 -2 26 147 -31z m-304 -143 c15
-53 15 -53 -29 -53 -44 0 -44 0 -29 53 7 26 15 37 29 37 14 0 22 -11 29 -37z"/>
<path d="M3740 2599 c-42 -17 -70 -51 -76 -91 -6 -32 -11 -38 -30 -38 -21 0
-24 -5 -24 -37 l0 -38 -23 27 c-74 88 -247 79 -306 -15 -12 -19 -21 -44 -21
-57 0 -21 -1 -21 -34 8 -20 18 -55 34 -87 42 -111 24 -120 29 -117 58 4 39 56
50 128 29 30 -9 55 -15 57 -14 1 2 9 20 18 40 l16 38 -38 16 c-51 21 -178 22
-218 1 -57 -30 -80 -65 -80 -120 0 -68 34 -99 139 -124 84 -19 117 -43 96 -69
-26 -31 -106 -27 -198 11 -11 5 -42 -50 -42 -75 0 -17 100 -43 168 -43 99 0
160 31 184 91 l9 25 18 -31 c11 -17 34 -41 53 -54 28 -20 45 -24 110 -24 86 0
114 14 156 76 20 28 23 44 20 97 -3 59 -2 62 20 62 22 0 22 -2 22 -120 l0
-120 55 0 55 0 0 120 0 121 48 -4 47 -5 5 -86 c4 -75 8 -89 31 -112 29 -28 86
-41 143 -30 l35 7 -13 37 c-11 30 -18 36 -35 34 -39 -6 -51 15 -51 89 l0 69
35 0 c34 0 35 1 35 40 0 39 -1 40 -35 40 -35 0 -35 1 -35 43 l0 42 -55 0 -55
0 0 -42 0 -43 -50 0 c-43 0 -50 3 -50 19 0 25 17 35 51 33 22 -2 27 4 37 35 6
20 9 39 7 41 -10 10 -102 11 -125 1z m-253 -221 c50 -47 19 -141 -47 -141 -42
0 -70 32 -70 81 0 70 68 106 117 60z"/>
<path d="M1640 2375 l0 -225 54 0 54 0 4 106 c3 116 13 134 69 134 46 0 59
-31 59 -142 l0 -98 56 0 56 0 -4 128 c-4 141 -14 170 -68 192 -40 17 -102 15
-139 -5 l-31 -16 0 76 0 75 -55 0 -55 0 0 -225z"/>
<path d="M2770 2375 l0 -225 55 0 55 0 0 225 0 225 -55 0 -55 0 0 -225z"/>
<path d="M1047 2576 c-89 -24 -134 -97 -104 -168 18 -43 64 -70 148 -87 72
-15 98 -33 83 -58 -19 -32 -59 -39 -122 -22 -31 9 -64 19 -73 23 -11 5 -20 -3
-32 -29 -9 -20 -17 -40 -17 -45 0 -17 101 -42 169 -42 96 0 156 27 179 81 l17
39 20 -36 c53 -95 218 -111 294 -28 28 30 29 27 -26 54 -35 18 -42 19 -47 7
-17 -45 -105 -35 -126 15 -34 82 46 153 113 100 l26 -21 41 21 c34 17 39 24
31 39 -15 26 -53 49 -103 60 -96 22 -198 -31 -220 -113 l-11 -41 -31 31 c-23
23 -50 35 -106 49 -84 20 -100 29 -100 56 0 40 89 47 172 14 13 -5 21 2 32 30
20 48 21 44 -16 59 -52 21 -138 27 -191 12z"/>
<path d="M2147 2480 c-46 -9 -84 -35 -115 -81 -20 -28 -23 -44 -20 -92 5 -69
27 -103 88 -134 94 -49 212 -18 257 66 l23 43 10 -28 c24 -63 92 -103 174
-104 134 0 219 117 168 232 -11 25 -33 54 -49 66 -33 23 -108 43 -138 37 -11
-2 -32 -6 -47 -10 -36 -7 -92 -57 -108 -95 l-13 -31 -17 39 c-21 47 -62 78
-121 91 -24 6 -46 10 -49 10 -3 -1 -22 -5 -43 -9z m83 -90 c23 -12 39 -59 33
-93 -11 -59 -88 -82 -125 -38 -54 68 18 171 92 131z m370 0 c25 -14 43 -71 31
-101 -21 -55 -89 -72 -123 -30 -54 68 18 171 92 131z"/>
<path d="M1025 1960 c-8 -14 3 -30 21 -30 8 0 14 -5 14 -11 0 -7 -9 -9 -21 -6
-15 4 -19 3 -12 -4 14 -14 45 -8 51 9 2 7 -5 16 -17 19 -26 7 -27 20 -3 26 13
4 12 5 -5 6 -12 0 -25 -3 -28 -9z"/>
<path d="M1117 1964 c-15 -15 -7 -53 13 -59 27 -8 52 12 48 39 -3 21 -46 35
-61 20z m49 -15 c10 -17 -23 -46 -37 -32 -7 7 -9 19 -6 27 7 18 33 21 43 5z"/>
<path d="M1221 1933 c1 -21 3 -30 6 -21 2 9 12 19 21 21 15 4 15 5 0 6 -26 2
-22 19 5 24 19 4 18 4 -5 6 -26 1 -28 -2 -27 -36z"/>
<path d="M1303 1963 c11 -3 18 -15 18 -36 l2 -32 4 30 c3 16 10 33 16 37 7 4
-4 7 -23 7 -19 -1 -27 -3 -17 -6z"/>
<path d="M1393 1935 c12 -41 20 -44 35 -12 l11 22 7 -22 c9 -32 20 -29 33 9
13 37 6 52 -8 17 l-10 -24 -7 23 c-3 12 -10 22 -14 22 -4 0 -12 -10 -18 -22
l-11 -23 -7 23 c-3 12 -10 22 -14 22 -5 0 -3 -16 3 -35z"/>
<path d="M1535 1938 c-7 -18 -11 -35 -8 -38 3 -3 8 1 10 8 5 14 43 16 43 2 0
-5 4 -10 10 -10 5 0 2 16 -7 35 -21 43 -30 44 -48 3z m30 2 c3 -5 1 -10 -4
-10 -6 0 -11 5 -11 10 0 6 2 10 4 10 3 0 8 -4 11 -10z"/>
<path d="M1630 1933 c0 -27 3 -34 9 -24 7 12 13 12 24 3 11 -10 14 -6 15 23 1
31 -2 35 -23 35 -22 0 -25 -4 -25 -37z m38 15 c-6 -18 -28 -21 -28 -4 0 9 7
16 16 16 9 0 14 -5 12 -12z"/>
<path d="M1720 1935 c0 -32 3 -35 28 -34 l27 0 -25 11 -25 11 25 7 c16 5 19 8
8 9 -10 1 -18 5 -18 10 0 5 8 12 18 14 10 3 6 5 -10 6 -25 1 -28 -2 -28 -34z"/>
<path d="M1860 1935 c0 -28 4 -35 19 -35 19 0 51 24 51 39 0 15 -25 31 -47 31
-20 0 -23 -5 -23 -35z m45 0 c0 -11 -8 -21 -17 -23 -14 -3 -18 3 -18 23 0 20
4 26 18 23 9 -2 17 -12 17 -23z"/>
<path d="M1960 1935 c0 -33 2 -35 33 -34 23 1 26 3 10 6 -27 5 -30 20 -5 26
16 4 16 5 0 6 -10 0 -18 5 -18 10 0 5 8 12 18 14 10 3 6 5 -10 6 -25 1 -28 -2
-28 -34z"/>
<path d="M2100 1951 c-7 -15 -6 -24 6 -36 21 -21 48 -15 52 10 4 20 4 20 -11
0 -12 -15 -18 -17 -28 -8 -16 16 -5 41 23 46 21 4 20 4 -4 6 -18 1 -31 -6 -38
-18z"/>
<path d="M2200 1935 c0 -32 2 -35 28 -34 23 2 24 2 5 6 -27 5 -30 20 -5 26 16
4 16 5 0 6 -26 2 -22 19 5 24 19 4 18 4 -5 6 -26 1 -28 -2 -28 -34z"/>
<path d="M2290 1933 c0 -27 3 -34 9 -24 7 12 13 12 24 3 11 -10 14 -6 15 23 1
31 -2 35 -23 35 -22 0 -25 -4 -25 -37z m38 15 c-6 -18 -28 -21 -28 -4 0 9 7
16 16 16 9 0 14 -5 12 -12z"/>
<path d="M2380 1935 c0 -32 3 -35 28 -34 l27 0 -25 11 -25 11 25 7 c16 5 19 8
8 9 -10 1 -18 5 -18 10 0 5 8 12 18 14 10 3 6 5 -10 6 -25 1 -28 -2 -28 -34z"/>
<path d="M2471 1934 c1 -25 3 -31 6 -16 l5 24 24 -23 24 -22 -1 39 c-1 21 -3
31 -6 22 -6 -22 -12 -22 -35 -1 -17 15 -18 14 -17 -23z"/>
<path d="M2577 1963 c-4 -3 -7 -17 -7 -29 0 -26 36 -42 53 -25 9 9 5 11 -13 9
-35 -4 -35 33 0 43 l25 7 -26 1 c-14 1 -29 -2 -32 -6z"/>
<path d="M2660 1935 c0 -19 5 -35 10 -35 6 0 10 16 10 35 0 19 -4 35 -10 35
-5 0 -10 -16 -10 -35z"/>
<path d="M2725 1938 c-7 -18 -11 -35 -8 -38 3 -3 8 1 10 8 5 14 43 16 43 2 0
-5 4 -10 10 -10 5 0 2 16 -7 35 -21 43 -30 44 -48 3z m30 2 c3 -5 1 -10 -4
-10 -6 0 -11 5 -11 10 0 6 2 10 4 10 3 0 8 -4 11 -10z"/>
<path d="M2821 1935 c1 -34 2 -36 9 -15 6 22 8 23 15 8 7 -19 25 -15 25 4 0 6
-3 9 -6 5 -4 -3 -15 4 -25 16 l-18 22 0 -40z"/>
<path d="M2878 1958 c-6 -18 3 -58 13 -58 5 0 9 16 9 35 0 34 -14 48 -22 23z"/>
<path d="M2940 1935 c0 -32 2 -35 28 -34 23 2 24 2 5 6 -27 5 -30 20 -5 26 16
4 16 5 0 6 -26 2 -22 19 5 24 19 4 18 4 -5 6 -26 1 -28 -2 -28 -34z"/>
<path d="M3020 1935 c0 -38 20 -50 21 -12 l0 22 16 -22 c22 -33 33 -28 33 12
0 19 -4 35 -10 35 -5 0 -10 -7 -10 -17 0 -15 -1 -15 -18 0 -27 24 -32 21 -32
-18z"/>
<path d="M3128 1963 c6 -2 12 -18 12 -34 0 -16 5 -29 10 -29 6 0 10 13 10 29
0 16 6 32 13 34 6 3 -4 5 -23 5 -19 0 -29 -2 -22 -5z"/>
<path d="M3210 1951 c-7 -15 -6 -24 6 -36 31 -31 82 6 55 39 -18 22 -48 20
-61 -3z m50 -10 c0 -11 -5 -23 -11 -27 -15 -9 -33 12 -26 30 9 23 37 20 37 -3z"/>
<path d="M3360 1935 c0 -33 2 -35 33 -34 23 1 26 3 10 6 -27 5 -30 20 -5 26
16 4 16 5 0 6 -10 0 -18 5 -18 10 0 5 8 12 18 14 10 3 6 5 -10 6 -25 1 -28 -2
-28 -34z"/>
<path d="M3450 1954 c0 -9 9 -18 20 -21 11 -3 17 -10 14 -15 -3 -5 -12 -7 -20
-4 -8 3 -14 1 -14 -5 0 -6 10 -9 22 -7 31 4 35 34 6 43 l-23 7 25 8 25 8 -27
1 c-19 1 -28 -4 -28 -15z"/>
<path d="M3539 1954 c-9 -11 -10 -20 -2 -32 11 -19 53 -29 53 -14 0 5 -8 9
-17 8 -12 -1 -19 7 -21 23 -3 20 0 23 17 18 12 -3 21 -1 21 4 0 15 -37 10 -51
-7z"/>
<path d="M3637 1964 c-15 -15 -7 -53 13 -59 27 -8 52 12 48 39 -3 21 -46 35
-61 20z m49 -15 c10 -17 -23 -46 -37 -32 -7 7 -9 19 -6 27 7 18 33 21 43 5z"/>
<path d="M3741 1938 c-1 -35 1 -38 27 -37 23 0 24 1 7 8 -11 4 -23 21 -26 37
-6 27 -7 27 -8 -8z"/>
<path d="M3825 1938 c-7 -18 -11 -35 -8 -38 3 -3 8 1 10 8 5 14 43 16 43 2 0
-5 4 -10 10 -10 5 0 2 16 -7 35 -21 43 -30 44 -48 3z m30 2 c3 -5 1 -10 -4
-10 -6 0 -11 5 -11 10 0 6 2 10 4 10 3 0 8 -4 11 -10z"/>
<path d="M3920 1933 c0 -28 3 -34 10 -23 7 12 12 12 22 2 19 -19 23 -15 23 21
0 28 -4 32 -27 35 -26 3 -28 1 -28 -35z m40 12 c0 -8 -7 -15 -15 -15 -8 0 -15
7 -15 15 0 8 7 15 15 15 8 0 15 -7 15 -15z"/>
</g>
</svg>
